# xmcd
#
# Track frame offsets:
#	150
#	91120
#	128745
#	173257
#
# Disc length: 2996 seconds
#
# Revision: 1
# Processed by: cddbd v1.5.1PL0 Copyright (c) Steve Scherf et al.
# Submitted via: CDex 1.50Beta5
#
DISCID=1f0bb204
DTITLE=朝比奈隆 - 交響曲第6番「悲愴」(チャイコフスキー)
DYEAR=1900
DGENRE=Classical
TTITLE0=第1楽章
TTITLE1=第2楽章
TTITLE2=第3楽章
TTITLE3=第4楽章
EXTD=
EXTT0=
EXTT1=
EXTT2=
EXTT3=
PLAYORDER=
